<?xml version="1.0" standalone="no"?>
<!DOCTYPE svg PUBLIC "-//W3C//DTD SVG 20010904//EN"
 "http://www.w3.org/TR/2001/REC-SVG-20010904/DTD/svg10.dtd">
<svg version="1.0" xmlns="http://www.w3.org/2000/svg"
 width="512.000000pt" height="512.000000pt" viewBox="0 0 512.000000 512.000000"
 preserveAspectRatio="xMidYMid meet">
<metadata>
Created by potrace 1.14, written by Peter Selinger 2001-2017
</metadata>
<g transform="translate(0.000000,512.000000) scale(0.100000,-0.100000)"
fill="#000000" stroke="none">
<path d="M1744 5103 c55 -191 118 -449 119 -493 0 -37 -26 -122 -81 -262 -27
-69 -64 -174 -81 -234 -18 -60 -41 -136 -52 -168 -20 -64 -24 -147 -10 -209 9
-37 8 -38 -12 -33 -45 11 -165 25 -265 31 l-103 6 -28 -28 c-43 -43 -73 -134
-70 -213 6 -183 69 -310 183 -367 28 -14 65 -38 83 -53 45 -40 229 -107 331
-122 19 -3 7 -20 -98 -133 -191 -205 -375 -459 -482 -663 -65 -125 -65 -164
-3 -281 51 -95 122 -192 239 -331 97 -114 93 -110 188 -191 70 -59 146 -99
191 -99 24 0 22 -8 -21 -80 -36 -60 -42 -64 -103 -85 -75 -25 -320 -137 -431
-195 -85 -45 -103 -65 -89 -102 6 -17 4 -30 -9 -48 -26 -37 -138 -255 -170
-330 -15 -36 -48 -112 -72 -170 -62 -143 -98 -234 -98 -242 0 -5 24 -8 53 -8
61 0 61 0 102 125 13 39 43 115 67 170 54 121 199 414 207 419 3 2 6 -84 7
-192 0 -183 10 -305 36 -459 8 -53 13 -63 30 -63 16 0 19 5 14 27 -32 156 -55
451 -48 634 l4 107 68 31 c38 18 95 42 127 55 210 85 342 139 370 151 45 22
50 19 22 -13 -83 -90 -193 -287 -205 -367 -5 -38 -2 -48 22 -80 16 -20 65 -65
110 -100 54 -43 97 -87 132 -138 29 -41 52 -78 52 -81 0 -3 -45 -50 -100 -105
-55 -55 -100 -105 -100 -111 0 -5 17 -10 39 -10 35 0 47 8 141 100 137 135
153 132 50 -10 -26 -36 -50 -71 -54 -77 -6 -10 39 -13 211 -13 l219 0 -8 78
c-12 134 -9 265 7 320 12 40 27 61 68 96 28 25 67 51 87 57 57 19 272 107 313
129 21 12 41 19 45 16 4 -2 7 -53 5 -113 -1 -59 -4 -215 -6 -345 l-4 -238 22
0 c31 0 35 28 35 234 1 94 5 189 10 211 24 111 42 171 56 186 24 26 81 31 123
10 20 -10 74 -31 121 -45 101 -33 136 -50 148 -74 5 -9 12 -52 15 -96 6 -80
-1 -110 -48 -211 -7 -17 -25 -64 -38 -105 -14 -41 -28 -83 -32 -92 -7 -17 8
-18 234 -18 150 0 241 4 241 10 0 5 -11 39 -25 76 -14 36 -25 75 -25 86 0 24
40 103 76 150 16 20 38 49 49 64 58 81 103 130 178 196 87 76 180 134 197 123
13 -8 13 -45 0 -45 -21 0 -252 -184 -310 -247 -76 -82 -137 -174 -146 -218 -4
-25 3 -49 36 -114 l41 -81 640 0 639 0 0 280 0 279 -27 15 -28 14 28 13 c18 8
27 20 27 36 0 22 -3 24 -32 18 -18 -4 -41 -9 -50 -11 -11 -3 -29 12 -56 48
-22 29 -67 87 -100 128 -33 41 -59 76 -57 78 7 7 245 -118 278 -147 17 -14 18
-11 15 59 l-3 74 -130 67 c-152 78 -209 104 -525 234 -52 21 -116 42 -253 80
-38 11 -55 20 -50 28 4 7 28 44 53 82 26 39 86 129 134 200 93 140 142 210
252 356 97 129 207 287 230 329 10 19 25 43 33 53 12 14 13 22 4 36 -10 16 -7
21 27 36 22 10 47 26 57 37 16 17 16 22 3 45 -9 17 -32 32 -59 41 -25 8 -71
32 -103 52 -68 43 -70 38 52 101 47 24 95 54 108 66 24 24 30 63 8 63 -17 0
-134 64 -280 154 -163 100 -151 83 -101 144 24 29 65 85 91 125 25 40 77 118
116 174 64 96 181 311 223 413 10 25 27 65 38 90 11 25 32 77 46 115 l26 70 3
523 3 522 -36 0 c-19 0 -35 -2 -35 -4 0 -2 7 -23 15 -46 8 -23 15 -50 14 -59
0 -9 -9 12 -20 47 -20 62 -20 62 -58 62 l-38 0 -1 -73 c-1 -90 -31 -185 -77
-245 -40 -52 -126 -145 -130 -140 -1 2 -8 13 -14 25 -6 13 -15 22 -19 21 -9
-2 -45 13 -52 21 -3 4 -17 12 -31 18 -21 9 -29 8 -41 -4 -13 -12 -22 -13 -57
-2 -41 12 -42 12 -83 -27 -41 -39 -41 -39 10 26 58 76 125 147 166 178 16 12
27 24 25 27 -11 10 -92 -38 -160 -95 -174 -148 -259 -261 -341 -454 -18 -43
-42 -88 -53 -100 -12 -11 -36 -41 -55 -66 -19 -25 -40 -49 -48 -53 -7 -5 -38
-48 -69 -95 -58 -88 -138 -199 -158 -217 -6 -5 -27 -32 -46 -58 -19 -27 -48
-63 -65 -81 -17 -17 -37 -53 -45 -80 -11 -37 -32 -66 -97 -132 -45 -46 -87
-84 -92 -84 -5 0 -20 -12 -33 -26 -16 -17 -42 -29 -71 -35 -26 -5 -62 -15 -79
-23 -18 -9 -50 -17 -72 -19 -22 -2 -49 -8 -59 -14 -14 -8 -30 -7 -60 3 -23 7
-69 21 -104 30 -35 10 -67 25 -72 34 -6 12 2 53 26 131 103 328 235 469 899
960 22 16 58 44 80 61 54 41 381 258 390 258 4 0 28 14 54 31 25 18 96 56 156
86 61 30 178 89 262 131 l151 77 -133 3 c-131 2 -136 2 -212 -30 -156 -64
-385 -190 -597 -329 -49 -33 -92 -59 -96 -59 -4 0 -5 15 -2 33 8 66 53 314 62
347 6 19 10 36 10 37 0 2 -28 3 -63 3 l-64 0 -11 -127 c-12 -122 -42 -306 -49
-299 -4 3 31 313 43 389 l6 37 -704 0 -703 0 -1 -163 c-1 -89 -7 -243 -13
-342 -6 -99 -13 -243 -15 -320 -4 -127 -16 -245 -32 -314 -11 -46 -46 -121
-54 -116 -5 3 -6 -26 -4 -64 5 -57 3 -69 -11 -75 -11 -4 -14 -12 -10 -25 5
-15 0 -21 -25 -26 -39 -9 -43 -5 -33 35 12 45 -4 248 -27 344 -41 173 -80 307
-133 451 -73 202 -147 465 -154 547 l-6 68 -64 0 c-57 0 -64 -2 -59 -17z
m3343 -235 c-2 -24 -4 -5 -4 42 0 47 2 66 4 43 2 -24 2 -62 0 -85z m0 -190
c-2 -24 -4 -7 -4 37 0 44 2 63 4 43 2 -21 2 -57 0 -80z m0 -90 c-3 -8 -6 -5
-6 6 -1 11 2 17 5 13 3 -3 4 -12 1 -19z m0 -65 c-3 -10 -5 -2 -5 17 0 19 2 27
5 18 2 -10 2 -26 0 -35z m-3104 -243 c15 -52 29 -108 32 -125 8 -42 37 -467
32 -471 -11 -12 -133 -25 -172 -20 -39 6 -47 12 -73 54 -62 101 -67 165 -22
301 17 51 37 122 46 158 8 37 26 92 38 122 13 31 31 78 41 106 l18 49 17 -39
c9 -22 29 -83 43 -135z m2431 -92 c17 -149 3 -319 -36 -423 -14 -36 -92 -161
-121 -192 l-20 -23 22 0 c40 0 91 29 151 86 33 31 60 54 60 50 0 -9 -45 -96
-67 -127 -10 -15 -52 -63 -94 -107 -43 -45 -76 -87 -75 -96 0 -8 -24 -32 -54
-53 -30 -21 -55 -45 -55 -53 0 -21 38 -24 74 -6 37 20 47 20 32 2 -17 -20
-192 -92 -286 -117 -104 -27 -175 -58 -175 -75 0 -7 16 -25 35 -40 19 -14 33
-30 30 -34 -10 -17 -75 -20 -137 -7 -76 16 -100 10 -118 -32 -13 -32 -24 -39
-35 -21 -3 6 -15 10 -25 10 -14 0 -30 20 -55 68 -19 37 -51 86 -71 109 -26 30
-32 44 -23 47 8 2 46 11 84 20 39 9 124 43 190 76 99 49 138 75 220 149 55 49
113 103 128 120 16 17 64 58 107 92 43 33 81 67 84 74 8 22 -30 37 -80 33 -24
-2 -44 -1 -44 1 0 2 11 18 24 35 26 34 66 110 66 125 0 17 -49 21 -90 7 -28
-10 -40 -10 -39 -2 0 6 24 58 52 116 l52 104 60 21 c66 22 146 63 185 94 14
11 28 21 31 21 3 0 9 -24 13 -52z m571 -170 c-26 -79 -51 -159 -57 -178 -27
-88 -169 -333 -266 -460 -189 -245 -256 -322 -315 -362 -60 -41 -222 -117
-390 -185 -57 -23 -86 -40 -83 -48 10 -26 -75 -38 -169 -25 -47 7 -95 10 -105
7 -11 -3 -22 -2 -25 2 -5 9 16 20 135 68 47 19 98 39 114 46 40 16 291 144
396 201 47 26 101 61 120 79 75 69 206 221 242 280 21 34 77 116 123 182 72
102 114 176 178 312 6 13 18 31 27 41 26 27 100 154 107 182 4 14 8 20 10 13
2 -6 -17 -76 -42 -155z m-2479 -361 c1 -1 4 -10 6 -21 8 -45 -320 -133 -547
-146 -140 -8 -215 -5 -215 10 0 13 -83 61 -134 76 -28 9 -62 20 -76 25 -28 10
-25 10 105 -18 58 -12 94 -12 215 -3 257 20 333 29 460 59 103 25 173 32 186
18z m-1029 -33 c-3 -3 -12 -4 -19 -1 -8 3 -5 6 6 6 11 1 17 -2 13 -5z m1544
-606 c78 -26 159 -120 159 -184 0 -39 -23 -40 -48 -3 -37 55 -93 116 -136 148
-25 19 -46 38 -46 43 0 11 31 10 71 -4z m-205 -141 c3 -2 -41 -34 -98 -71
l-103 -66 42 0 c54 0 137 -28 162 -54 23 -25 32 -62 13 -58 -7 1 -53 5 -102 9
-104 7 -207 -15 -242 -51 -11 -11 -58 -72 -104 -133 -46 -62 -89 -113 -94
-113 -21 0 -21 31 0 97 12 37 32 88 46 112 13 24 24 45 24 47 0 3 -24 -10 -52
-27 -72 -42 -560 -281 -565 -276 -4 5 81 56 241 146 59 33 154 91 210 127 242
157 366 234 433 268 40 21 75 42 79 47 5 9 100 6 110 -4z m1815 -51 c24 -13
74 -34 111 -46 l66 -23 -96 -44 c-138 -62 -186 -93 -190 -124 -2 -20 3 -27 32
-37 19 -7 40 -19 46 -27 10 -13 8 -15 -14 -15 -36 0 -186 -56 -186 -70 0 -10
96 -30 146 -30 24 0 44 -4 44 -9 0 -14 -55 -24 -90 -16 -21 5 -46 -1 -90 -21
-33 -15 -64 -24 -68 -20 -4 4 0 11 8 16 8 5 23 15 34 23 17 12 14 14 -30 15
-27 1 -53 7 -58 12 -15 15 62 78 104 85 68 11 62 22 -15 29 -83 8 -125 22
-125 42 0 7 15 15 33 18 44 7 146 18 182 21 17 1 43 13 58 27 29 27 43 35 160
87 37 17 67 33 67 36 0 3 -19 3 -42 1 -24 -3 -74 -8 -113 -11 -38 -4 -97 -15
-130 -26 -100 -31 -263 -67 -274 -59 -7 4 14 13 46 21 l58 14 -95 5 c-74 4
-95 8 -95 19 0 9 13 16 35 18 94 8 187 27 219 44 20 10 42 19 49 19 7 0 23 6
35 13 24 13 93 34 118 36 9 1 36 -10 60 -23z m-561 -116 c18 -12 2 -12 -25 0
-13 6 -15 9 -5 9 8 0 22 -4 30 -9z m-806 -316 c-34 -92 -41 -207 -20 -297 9
-38 16 -85 16 -105 0 -27 8 -45 33 -71 29 -32 28 -31 -20 8 -74 60 -100 94
-118 153 -39 134 0 318 89 416 l21 24 12 -30 c10 -24 8 -39 -13 -98z m391 64
c15 -22 70 -181 101 -293 24 -88 -12 -101 -190 -69 -105 18 -150 35 -165 61
-8 16 2 36 54 114 66 97 160 209 175 209 5 0 16 -10 25 -22z m1165 -15 c0 -5
-30 -24 -66 -43 -37 -19 -85 -51 -108 -71 -22 -20 -52 -40 -66 -44 l-25 -8 30
-9 c28 -8 104 -3 150 9 14 4 7 -8 -23 -40 -24 -24 -67 -76 -95 -115 -29 -38
-86 -115 -127 -170 -41 -55 -97 -131 -123 -169 -112 -157 -239 -338 -245 -349
-10 -16 -278 -154 -299 -154 -10 0 -14 4 -8 8 19 14 56 73 53 84 -2 6 -17 0
-33 -14 -17 -13 -47 -34 -67 -46 l-38 -21 -11 22 c-16 30 -28 37 -68 37 -46 0
-125 -43 -365 -202 -52 -34 -61 -37 -74 -24 -13 12 -10 22 19 75 29 52 42 65
84 85 79 36 159 91 174 120 8 14 12 28 9 31 -6 6 -117 -22 -298 -73 -58 -17
-125 -33 -150 -37 -25 -3 -60 -11 -78 -16 -17 -6 -45 -8 -62 -4 -29 6 -29 7
58 80 48 40 109 98 135 129 66 77 93 88 230 95 22 1 27 6 27 26 0 15 -7 28
-17 32 -10 4 -29 17 -43 30 -14 13 -28 23 -31 23 -3 0 -37 20 -75 45 -65 43
-69 48 -81 98 -17 72 -17 82 2 67 19 -16 127 -69 141 -70 6 0 40 -13 75 -30
35 -16 51 -27 35 -24 -22 5 -27 4 -21 -6 5 -8 20 -10 41 -7 19 3 32 2 29 -3
-3 -5 13 -14 36 -20 47 -13 120 -49 131 -64 4 -6 8 -21 8 -32 0 -36 62 -47
105 -18 l25 16 0 -41 c0 -23 -7 -58 -15 -78 -8 -19 -15 -45 -15 -57 0 -12 -6
-28 -12 -35 -11 -10 -8 -10 14 0 61 27 77 -15 26 -70 -18 -19 -25 -29 -15 -21
14 10 20 11 26 2 12 -19 91 7 149 50 28 21 52 41 52 44 0 3 -21 -6 -46 -20
-26 -14 -49 -26 -52 -26 -10 0 111 121 150 149 26 20 34 32 28 42 -7 11 -17
10 -55 -9 -55 -27 -63 -27 -94 -3 -38 29 -35 63 9 106 25 24 43 35 52 30 7 -5
10 -5 6 -1 -4 4 9 21 28 38 73 65 120 145 64 110 -36 -22 -20 2 69 103 144
165 281 265 383 282 31 4 36 8 27 20 -24 28 35 68 196 137 57 24 125 34 125
19z m-610 -38 c0 -2 -36 -48 -79 -102 -87 -108 -218 -239 -207 -208 4 11 10
35 13 52 3 18 8 31 12 29 4 -3 60 49 126 114 109 107 135 129 135 115z m-1519
-229 l23 -44 -60 -133 c-100 -224 -127 -274 -151 -277 -12 -2 -45 8 -72 21
l-51 24 -23 -41 c-12 -23 -38 -76 -57 -119 -18 -42 -42 -85 -52 -94 -17 -16
-22 -15 -66 6 -26 12 -63 33 -82 46 -40 27 -117 47 -272 70 l-106 16 -63 -40
c-73 -47 -80 -48 -103 -22 -16 18 -14 21 51 68 106 77 96 75 219 53 60 -11
141 -25 179 -32 56 -9 82 -20 132 -54 68 -48 73 -50 73 -30 0 27 104 249 125
266 8 7 34 0 79 -20 36 -17 69 -31 72 -33 3 -1 17 27 30 62 13 35 42 98 63
140 21 42 46 106 56 144 10 37 21 67 25 67 4 0 18 -20 31 -44z m-192 -326
c-11 -30 -29 -41 -29 -18 0 10 28 48 36 48 2 0 -2 -13 -7 -30z m1531 -575 c0
-3 -7 -16 -15 -29 -9 -13 -34 -70 -56 -127 -42 -110 -176 -359 -192 -359 -5 0
-6 12 -3 28 19 81 36 247 33 319 l-5 81 77 26 c42 14 92 35 111 45 38 20 50
24 50 16z m-333 -100 c24 -45 10 -273 -22 -358 -8 -20 -15 -51 -15 -67 0 -22
-9 -36 -36 -57 -21 -15 -54 -43 -76 -62 l-38 -34 -68 30 c-37 17 -121 47 -187
67 -165 51 -195 64 -195 90 0 12 24 53 53 91 57 75 87 92 232 137 l60 18 -72
-4 c-40 -2 -73 -2 -73 0 0 1 17 13 38 25 20 12 75 47 122 78 47 30 114 72 150
93 l64 38 23 -28 c13 -15 31 -40 40 -57z m-1477 -65 c0 -4 -6 -23 -14 -41 -67
-163 -55 -297 37 -407 21 -24 37 -47 37 -52 0 -4 -12 -11 -27 -15 -34 -8 -58
18 -106 115 -29 59 -32 72 -30 150 1 83 37 223 64 257 11 12 39 7 39 -7z m235
-4 c89 -13 229 -47 253 -62 18 -12 22 -21 17 -42 -3 -15 -6 -43 -7 -63 l-1
-35 -51 13 c-63 16 -142 16 -181 -1 -27 -11 -19 -13 80 -14 61 0 122 -5 135
-11 23 -9 22 -10 -15 -11 -22 -1 -58 -7 -80 -15 l-40 -13 60 -1 c90 -2 103 -8
125 -59 11 -25 19 -46 17 -48 -1 -1 -36 -14 -77 -28 -41 -13 -113 -40 -159
-59 -47 -19 -93 -32 -104 -29 -12 3 -49 34 -83 68 -52 53 -64 72 -73 114 -6
28 -11 62 -11 74 0 34 38 154 62 198 23 40 20 39 133 24z m601 -19 c3 -8 -5
-38 -17 -68 -14 -35 -23 -82 -25 -133 -5 -98 -27 -143 -68 -138 -100 11 -136
49 -143 149 -9 123 20 158 157 189 73 16 90 17 96 1z m54 -79 c-27 -33 -54
-67 -59 -76 -19 -34 -18 -5 3 58 18 55 25 66 46 68 14 2 29 8 34 12 5 5 13 7
18 4 5 -3 -14 -33 -42 -66z m-1051 2 c-7 -24 -29 -61 -49 -82 -51 -57 -148
-195 -176 -251 l-25 -48 44 -49 c51 -56 152 -207 173 -255 8 -19 14 -45 14
-57 0 -17 -8 -9 -30 31 -43 77 -107 157 -159 199 -76 59 -121 105 -121 122 0
47 97 201 203 320 42 47 129 121 135 115 2 -1 -2 -22 -9 -45z"/>
<path d="M4580 2810 c-8 -5 -31 -17 -50 -25 -23 -10 -26 -13 -10 -10 68 15
120 32 114 38 -10 9 -36 8 -54 -3z"/>
<path d="M3605 2341 c-3 -5 -1 -12 5 -16 5 -3 10 1 10 9 0 18 -6 21 -15 7z"/>
<path d="M3621 2284 c0 -11 3 -14 6 -6 3 7 2 16 -1 19 -3 4 -6 -2 -5 -13z"/>
<path d="M3530 2225 c-7 -9 -11 -17 -9 -20 3 -2 10 5 17 15 14 24 10 26 -8 5z"/>
<path d="M3568 2193 c7 -3 16 -2 19 1 4 3 -2 6 -13 5 -11 0 -14 -3 -6 -6z"/>
<path d="M3635 2190 c-19 -8 -19 -9 3 -9 12 -1 22 4 22 9 0 6 -1 10 -2 9 -2 0
-12 -4 -23 -9z"/>
<path d="M4510 2239 c-13 -5 -42 -9 -64 -7 -26 2 -41 -1 -44 -11 -3 -9 0 -11
8 -6 8 5 11 3 8 -6 -2 -8 -33 -36 -69 -62 -68 -51 -90 -78 -71 -85 17 -5 15
-22 -5 -45 -10 -11 7 -4 37 16 67 45 83 47 44 6 l-29 -32 44 24 c24 13 89 68
145 121 l101 97 -40 0 c-22 0 -51 -5 -65 -10z"/>
<path d="M4501 2079 c-14 -5 -31 -19 -39 -31 -8 -11 -66 -54 -128 -94 -63 -41
-114 -77 -114 -80 0 -13 216 129 274 181 22 19 37 35 35 34 -2 0 -15 -5 -28
-10z"/>
<path d="M3725 1320 c3 -5 8 -10 11 -10 2 0 4 5 4 10 0 6 -5 10 -11 10 -5 0
-7 -4 -4 -10z"/>
<path d="M3218 927 c-43 -11 -31 -12 111 -12 107 0 154 3 143 10 -25 14 -200
15 -254 2z"/>
<path d="M2451 1026 c10 -10 241 -97 246 -93 15 16 -170 97 -220 97 -17 0 -28
-2 -26 -4z"/>
<path d="M2688 476 c-12 -6 -30 -25 -41 -43 -15 -27 -16 -38 -7 -72 11 -43 59
-91 92 -91 11 0 35 15 54 34 27 27 34 42 34 74 0 74 -73 127 -132 98z"/>
<path d="M1138 34 c-44 -23 -33 -34 37 -34 68 0 79 9 43 34 -28 20 -45 20 -80
0z"/>
</g>
</svg>
